<svg width="16" height="16" viewBox="0 0 16 16" fill="none" xmlns="http://www.w3.org/2000/svg">
<path d="M11.3333 7.86975C11.3333 7.63928 11.3333 7.52408 11.3679 7.42141C11.4687 7.12301 11.7345 7.00728 12.0007 6.88601C12.2999 6.74968 12.4495 6.68155 12.5978 6.66955C12.7661 6.65593 12.9347 6.69221 13.0786 6.77295C13.2693 6.87995 13.4023 7.08335 13.5385 7.24875C14.1675 8.01261 14.4819 8.39461 14.5969 8.81581C14.6898 9.15568 14.6898 9.51115 14.5969 9.85101C14.4291 10.4653 13.8989 10.9803 13.5065 11.457C13.3057 11.7008 13.2053 11.8227 13.0786 11.8939C12.9347 11.9746 12.7661 12.0109 12.5978 11.9973C12.4495 11.9853 12.2999 11.9171 12.0007 11.7808C11.7345 11.6595 11.4687 11.5438 11.3679 11.2454C11.3333 11.1427 11.3333 11.0275 11.3333 10.7971V7.86975Z" stroke="#979FA5" stroke-width="1.5"/>
<path d="M4.66659 7.86979C4.66659 7.57966 4.65844 7.31886 4.42386 7.11486C4.33854 7.04066 4.22542 6.98913 3.99919 6.88606C3.69993 6.7498 3.55029 6.68166 3.40203 6.66966C2.95719 6.63366 2.71787 6.93726 2.46134 7.24886C1.83242 8.01273 1.51796 8.39466 1.40289 8.81586C1.31004 9.15579 1.31004 9.51126 1.40289 9.85113C1.57072 10.4655 2.10093 10.9804 2.49339 11.4571C2.74078 11.7576 2.9771 12.0317 3.40203 11.9974C3.55029 11.9854 3.69993 11.9172 3.99919 11.7809C4.22542 11.6779 4.33854 11.6263 4.42386 11.5521C4.65844 11.3481 4.66659 11.0874 4.66659 10.7972V7.86979Z" stroke="#979FA5" stroke-width="1.5"/>
<path d="M13.3334 6.99992V5.99992C13.3334 3.42259 10.9456 1.33325 8.00008 1.33325C5.05456 1.33325 2.66675 3.42259 2.66675 5.99992V6.99992" stroke="#979FA5" stroke-width="1.5" stroke-linecap="round" stroke-linejoin="round"/>
<path d="M13.3333 11.6667C13.3333 14.6667 10.6667 14.6667 8 14.6667" stroke="#979FA5" stroke-width="1.5" stroke-linecap="round" stroke-linejoin="round"/>
</svg>
