<svg width="20" height="20" viewBox="0 0 20 20" fill="none" xmlns="http://www.w3.org/2000/svg">
<path d="M9.25017 2.5C6.20881 2.50548 4.61618 2.58014 3.59838 3.59795C2.5 4.69633 2.5 6.46415 2.5 9.99975C2.5 13.5354 2.5 15.3032 3.59838 16.4016C4.69676 17.5 6.46458 17.5 10.0003 17.5C13.5358 17.5 15.3037 17.5 16.4021 16.4016C17.4198 15.3838 17.4945 13.7912 17.5 10.7498" stroke="#4C5053" stroke-width="1.25" stroke-linecap="round" stroke-linejoin="round"/>
<path d="M17.4994 5.02107L16.6665 5.01897C13.5527 5.01109 11.9958 5.00715 10.9013 5.79387C10.5375 6.05532 10.2183 6.3737 9.956 6.73677C9.1665 7.82929 9.1665 9.38623 9.1665 12.5M17.4994 5.02107C17.505 4.88555 17.4566 4.74921 17.3541 4.62778C16.7164 3.87238 15.0591 2.5 15.0591 2.5M17.4994 5.02107C17.4943 5.1426 17.4458 5.26347 17.3539 5.37234C16.7162 6.12758 15.0591 7.5 15.0591 7.5" stroke="#4C5053" stroke-width="1.25" stroke-linecap="round" stroke-linejoin="round"/>
</svg>
